<svg xmlns="http://www.w3.org/2000/svg" viewBox="0 0 200 200" role="img" aria-label="Il polpo di Michele - firma MikiLab">
<circle cx="100" cy="100" r="97" fill="#F6F1E7"/>
<circle cx="100" cy="100" r="95" fill="none" stroke="#23262B" stroke-width="3"/>
<circle cx="100" cy="100" r="89" fill="none" stroke="#B5703A" stroke-width="1.2" stroke-dasharray="2 4"/>
<g transform="translate(100 104) scale(0.88) translate(-100 -100)">
<path d="M81.5,101.3 L80.0,101.8 L78.6,102.2 L77.3,102.6 L76.0,102.9 L74.7,103.1 L73.4,103.3 L72.1,103.5 L70.8,103.6 L69.5,103.6 L68.2,103.6 L67.0,103.5 L65.7,103.4 L64.5,103.2 L63.2,103.0 L62.0,102.7 L60.7,102.4 L59.5,102.1 L58.3,101.6 L57.1,101.2 L55.8,100.6 L54.6,100.0 L53.4,99.4 L52.2,98.7 L51.1,98.0 L49.9,97.2 L48.8,96.4 L47.6,95.5 L46.5,94.6 L45.4,93.6 L44.3,92.5 L43.3,91.5 L42.2,90.3 L41.2,89.2 L40.2,88.0 L39.2,86.7 L38.3,85.4 L37.4,84.1 L36.5,82.7 L35.6,81.3 L34.8,79.7 L33.8,77.9 L32.3,75.9 L30.7,74.2 L28.9,72.8 L27.0,71.7 L25.0,70.8 L22.9,70.3 L20.9,70.0 L18.9,70.1 L17.0,70.4 L15.2,70.9 L13.5,71.7 L12.0,72.7 L10.7,73.8 L9.5,75.1 L8.6,76.4 L8.0,77.9 L7.5,79.3 L7.2,80.8 L7.2,82.3 L7.3,83.7 L7.6,85.0 L8.1,86.2 L8.8,87.3 L9.5,88.3 L10.4,89.2 L11.3,89.9 L12.3,90.4 L13.3,90.8 L14.4,91.1 L15.4,91.2 L16.4,91.1 L17.4,91.0 L18.2,90.7 L19.1,90.3 L19.8,89.8 L20.4,89.2 L21.0,88.6 L21.4,87.9 L21.7,87.2 L21.9,86.5 L22.0,85.8 L22.1,85.1 L22.0,84.4 L21.9,83.8 L21.7,83.3 L19.8,83.9 L19.9,84.3 L19.9,84.6 L19.8,85.0 L19.8,85.4 L19.6,85.8 L19.4,86.1 L19.1,86.4 L18.8,86.7 L18.5,87.0 L18.1,87.2 L17.7,87.3 L17.2,87.4 L16.8,87.4 L16.3,87.4 L15.8,87.3 L15.4,87.1 L14.9,86.9 L14.5,86.6 L14.1,86.2 L13.8,85.8 L13.5,85.4 L13.3,84.8 L13.1,84.3 L13.1,83.7 L13.1,83.1 L13.1,82.5 L13.3,81.9 L13.6,81.3 L13.9,80.7 L14.3,80.2 L14.8,79.7 L15.4,79.3 L16.1,79.0 L16.8,78.7 L17.5,78.5 L18.3,78.5 L19.1,78.5 L19.9,78.6 L20.8,78.9 L21.6,79.3 L22.3,79.8 L23.1,80.4 L23.7,81.1 L24.3,82.0 L24.7,82.9 L25.2,84.3 L25.9,86.0 L26.6,87.8 L27.4,89.6 L28.3,91.3 L29.2,93.0 L30.1,94.7 L31.1,96.3 L32.1,97.9 L33.1,99.5 L34.2,101.1 L35.4,102.6 L36.6,104.1 L37.8,105.5 L39.1,106.9 L40.4,108.3 L41.8,109.6 L43.2,110.9 L44.6,112.1 L46.1,113.3 L47.7,114.4 L49.3,115.4 L50.9,116.5 L52.6,117.4 L54.3,118.3 L56.0,119.1 L57.8,119.9 L59.7,120.6 L61.6,121.2 L63.5,121.8 L65.4,122.3 L67.4,122.7 L69.5,123.0 L71.5,123.3 L73.6,123.5 L75.7,123.5 L77.9,123.5 L80.0,123.5 L82.2,123.3 L84.4,123.0 L86.5,122.7Z" fill="#23262B" stroke="#23262B" stroke-width="1" stroke-linejoin="round"/>
<path d="M80.7,111.8 L79.3,113.3 L77.9,114.6 L76.6,115.8 L75.3,117.0 L74.0,118.2 L72.6,119.2 L71.3,120.2 L70.0,121.2 L68.8,122.1 L67.5,122.9 L66.2,123.6 L64.9,124.3 L63.7,125.0 L62.4,125.6 L61.2,126.1 L60.0,126.6 L58.8,127.0 L57.6,127.4 L56.4,127.8 L55.2,128.0 L54.0,128.3 L52.9,128.5 L51.7,128.6 L50.6,128.7 L49.4,128.8 L48.3,128.8 L47.2,128.7 L46.1,128.6 L45.0,128.5 L43.9,128.3 L42.8,128.1 L41.7,127.8 L40.6,127.5 L39.6,127.1 L38.5,126.7 L37.5,126.3 L36.4,125.8 L35.4,125.2 L34.4,124.6 L33.4,123.9 L32.3,123.2 L31.6,122.6 L31.0,122.0 L30.5,121.3 L30.1,120.6 L29.8,119.8 L29.7,119.0 L29.6,118.3 L29.7,117.6 L29.8,116.9 L30.0,116.2 L30.3,115.6 L30.7,115.0 L31.1,114.6 L31.5,114.2 L32.1,113.8 L32.6,113.6 L33.1,113.4 L33.7,113.3 L34.2,113.3 L34.8,113.3 L35.3,113.4 L35.8,113.6 L36.2,113.8 L36.6,114.1 L37.0,114.5 L37.3,114.8 L37.5,115.2 L37.7,115.6 L37.8,116.1 L37.8,116.5 L37.8,116.9 L37.8,117.4 L37.6,117.7 L37.5,118.1 L37.3,118.5 L37.0,118.7 L36.7,119.0 L36.4,119.2 L36.1,119.4 L35.7,119.5 L35.4,119.5 L35.0,119.5 L34.7,119.5 L34.4,119.4 L34.0,119.2 L33.0,120.9 L33.4,121.2 L34.0,121.5 L34.6,121.7 L35.2,121.8 L35.9,121.9 L36.6,121.9 L37.3,121.7 L38.0,121.5 L38.7,121.2 L39.4,120.7 L40.0,120.2 L40.5,119.5 L41.0,118.8 L41.4,118.0 L41.7,117.1 L41.8,116.1 L41.9,115.1 L41.7,114.1 L41.5,113.0 L41.1,112.0 L40.5,111.0 L39.8,110.1 L38.9,109.2 L37.9,108.5 L36.7,107.9 L35.5,107.4 L34.1,107.1 L32.7,107.0 L31.3,107.1 L29.8,107.4 L28.3,107.9 L26.9,108.6 L25.6,109.5 L24.3,110.7 L23.2,112.0 L22.3,113.6 L21.6,115.2 L21.1,117.1 L20.8,119.0 L20.8,121.0 L21.1,123.0 L21.7,125.1 L22.6,127.1 L23.7,129.0 L25.2,130.7 L26.6,132.1 L27.7,133.1 L28.9,134.2 L30.1,135.2 L31.4,136.2 L32.7,137.1 L34.1,138.0 L35.5,138.8 L36.9,139.6 L38.4,140.3 L39.9,140.9 L41.4,141.5 L43.0,142.1 L44.6,142.5 L46.3,142.9 L48.0,143.3 L49.7,143.5 L51.4,143.8 L53.2,143.9 L55.0,144.0 L56.8,144.0 L58.6,143.9 L60.5,143.7 L62.3,143.5 L64.2,143.2 L66.1,142.9 L68.0,142.4 L70.0,141.9 L71.9,141.3 L73.8,140.6 L75.8,139.9 L77.7,139.1 L79.7,138.2 L81.7,137.2 L83.6,136.1 L85.6,135.0 L87.5,133.8 L89.5,132.5 L91.5,131.1 L93.4,129.7 L95.3,128.2Z" fill="#23262B" stroke="#23262B" stroke-width="1" stroke-linejoin="round"/>
<path d="M84.2,120.1 L83.7,122.0 L83.1,123.7 L82.5,125.4 L81.9,127.1 L81.2,128.7 L80.6,130.3 L79.9,131.8 L79.2,133.3 L78.4,134.7 L77.7,136.1 L76.9,137.4 L76.1,138.7 L75.3,139.9 L74.5,141.1 L73.7,142.3 L72.9,143.4 L72.0,144.4 L71.2,145.4 L70.3,146.4 L69.5,147.3 L68.6,148.2 L67.7,149.0 L66.8,149.7 L65.9,150.4 L65.0,151.1 L64.1,151.7 L63.2,152.2 L62.3,152.8 L61.4,153.2 L60.5,153.6 L59.6,154.0 L58.7,154.3 L57.8,154.6 L56.9,154.8 L55.9,155.0 L55.0,155.1 L54.1,155.2 L53.1,155.2 L52.2,155.2 L51.1,155.0 L49.9,154.9 L49.1,154.7 L48.4,154.5 L47.7,154.1 L47.1,153.7 L46.6,153.3 L46.2,152.7 L45.8,152.2 L45.6,151.6 L45.4,151.0 L45.3,150.4 L45.3,149.8 L45.3,149.2 L45.4,148.7 L45.6,148.1 L45.9,147.7 L46.2,147.3 L46.6,146.9 L46.9,146.6 L47.4,146.3 L47.8,146.2 L48.2,146.0 L48.7,146.0 L49.1,146.0 L49.6,146.0 L50.0,146.2 L50.4,146.3 L50.7,146.5 L51.0,146.8 L51.3,147.1 L51.5,147.4 L51.7,147.7 L51.8,148.1 L51.9,148.4 L51.9,148.8 L51.9,149.1 L51.8,149.5 L51.7,149.8 L51.5,150.1 L51.3,150.3 L51.1,150.6 L50.8,150.8 L50.6,150.9 L50.3,151.0 L50.0,151.1 L49.6,151.0 L49.5,153.0 L50.0,153.1 L50.5,153.1 L51.1,153.0 L51.7,152.9 L52.3,152.6 L52.9,152.3 L53.4,151.9 L53.9,151.4 L54.3,150.8 L54.7,150.2 L55.0,149.5 L55.2,148.7 L55.3,147.9 L55.2,147.0 L55.1,146.2 L54.8,145.3 L54.4,144.5 L53.9,143.6 L53.2,142.9 L52.4,142.2 L51.5,141.6 L50.6,141.2 L49.5,140.8 L48.3,140.6 L47.1,140.6 L45.9,140.8 L44.6,141.1 L43.4,141.6 L42.2,142.3 L41.1,143.1 L40.1,144.2 L39.3,145.4 L38.5,146.7 L38.0,148.2 L37.6,149.8 L37.5,151.4 L37.6,153.1 L38.0,154.9 L38.6,156.6 L39.4,158.2 L40.5,159.8 L41.8,161.2 L43.4,162.5 L45.2,163.6 L47.1,164.4 L48.9,165.0 L50.2,165.4 L51.7,165.7 L53.2,166.0 L54.7,166.2 L56.2,166.4 L57.7,166.4 L59.3,166.4 L60.8,166.3 L62.4,166.1 L63.9,165.8 L65.5,165.5 L67.0,165.0 L68.6,164.6 L70.1,164.0 L71.6,163.4 L73.1,162.7 L74.6,161.9 L76.1,161.1 L77.6,160.2 L79.0,159.2 L80.5,158.2 L81.9,157.1 L83.3,155.9 L84.7,154.7 L86.1,153.5 L87.4,152.1 L88.8,150.7 L90.1,149.3 L91.4,147.8 L92.6,146.2 L93.9,144.6 L95.1,143.0 L96.3,141.3 L97.4,139.5 L98.6,137.7 L99.7,135.8 L100.8,133.9 L101.8,131.9 L102.8,129.8 L103.8,127.9Z" fill="#23262B" stroke="#23262B" stroke-width="1" stroke-linejoin="round"/>
<path d="M90.0,125.2 L90.0,127.1 L90.0,128.9 L90.0,130.7 L89.9,132.4 L89.8,134.1 L89.8,135.8 L89.7,137.4 L89.6,139.0 L89.4,140.5 L89.3,142.1 L89.2,143.5 L89.0,145.0 L88.8,146.4 L88.7,147.7 L88.5,149.1 L88.3,150.4 L88.1,151.6 L87.8,152.8 L87.6,154.0 L87.4,155.1 L87.1,156.2 L86.8,157.3 L86.6,158.3 L86.3,159.3 L86.0,160.2 L85.7,161.2 L85.4,162.0 L85.1,162.9 L84.8,163.7 L84.5,164.4 L84.1,165.1 L83.8,165.8 L83.5,166.5 L83.2,167.1 L82.8,167.7 L82.5,168.2 L82.1,168.8 L81.8,169.2 L81.4,169.7 L81.0,170.2 L80.3,170.9 L79.8,171.3 L79.3,171.6 L78.8,171.9 L78.2,172.0 L77.7,172.1 L77.1,172.2 L76.6,172.1 L76.1,172.0 L75.7,171.8 L75.2,171.6 L74.9,171.4 L74.5,171.0 L74.2,170.7 L74.0,170.3 L73.8,170.0 L73.7,169.6 L73.7,169.2 L73.7,168.8 L73.7,168.4 L73.8,168.0 L73.9,167.7 L74.1,167.4 L74.3,167.1 L74.6,166.9 L74.8,166.7 L75.1,166.5 L75.4,166.4 L75.7,166.3 L76.0,166.3 L76.3,166.3 L76.6,166.3 L76.9,166.4 L77.2,166.6 L77.4,166.7 L77.6,166.9 L77.8,167.1 L77.9,167.3 L78.0,167.6 L78.1,167.8 L78.1,168.1 L78.1,168.3 L78.1,168.6 L78.0,168.8 L77.9,169.0 L77.7,169.2 L79.2,170.6 L79.5,170.3 L79.8,169.9 L80.1,169.5 L80.3,169.0 L80.5,168.5 L80.6,167.9 L80.6,167.3 L80.6,166.7 L80.4,166.0 L80.2,165.4 L79.9,164.8 L79.4,164.2 L78.9,163.7 L78.3,163.2 L77.6,162.8 L76.9,162.5 L76.1,162.3 L75.2,162.2 L74.3,162.2 L73.4,162.4 L72.5,162.7 L71.6,163.1 L70.7,163.7 L69.9,164.3 L69.2,165.2 L68.6,166.1 L68.1,167.1 L67.8,168.3 L67.6,169.5 L67.6,170.7 L67.7,172.0 L68.0,173.3 L68.5,174.6 L69.2,175.8 L70.1,176.9 L71.2,177.9 L72.4,178.9 L73.8,179.6 L75.4,180.2 L77.0,180.5 L78.7,180.7 L80.4,180.6 L82.2,180.2 L84.0,179.6 L85.7,178.7 L87.0,177.8 L87.8,177.4 L88.6,176.8 L89.4,176.2 L90.2,175.6 L91.0,174.9 L91.8,174.1 L92.5,173.4 L93.3,172.6 L94.0,171.7 L94.7,170.8 L95.4,169.9 L96.1,168.9 L96.8,167.9 L97.5,166.9 L98.1,165.8 L98.7,164.7 L99.4,163.6 L100.0,162.4 L100.6,161.1 L101.1,159.9 L101.7,158.6 L102.3,157.2 L102.8,155.9 L103.4,154.4 L103.9,153.0 L104.4,151.5 L104.9,150.0 L105.3,148.4 L105.8,146.8 L106.3,145.2 L106.7,143.5 L107.1,141.8 L107.5,140.1 L107.9,138.3 L108.3,136.4 L108.7,134.6 L109.0,132.7 L109.3,130.8 L109.7,128.8 L110.0,126.8Z" fill="#23262B" stroke="#23262B" stroke-width="1" stroke-linejoin="round"/>
<path d="M96.1,127.6 L96.6,129.6 L97.1,131.6 L97.6,133.5 L98.1,135.4 L98.7,137.3 L99.3,139.1 L99.9,140.9 L100.5,142.6 L101.1,144.3 L101.8,145.9 L102.5,147.5 L103.2,149.0 L103.9,150.5 L104.6,152.0 L105.3,153.4 L106.1,154.7 L106.8,156.0 L107.6,157.3 L108.4,158.5 L109.2,159.6 L110.0,160.7 L110.8,161.8 L111.6,162.8 L112.4,163.8 L113.3,164.7 L114.1,165.6 L115.0,166.4 L115.9,167.2 L116.7,168.0 L117.6,168.7 L118.5,169.3 L119.4,169.9 L120.3,170.4 L121.2,170.9 L122.1,171.4 L123.1,171.7 L124.0,172.1 L124.9,172.4 L125.9,172.6 L126.7,172.7 L128.3,173.0 L130.2,173.2 L132.0,173.1 L133.8,172.7 L135.4,172.1 L137.0,171.4 L138.3,170.4 L139.5,169.3 L140.5,168.1 L141.3,166.8 L141.9,165.5 L142.3,164.1 L142.5,162.7 L142.5,161.3 L142.3,160.0 L142.0,158.7 L141.5,157.6 L140.8,156.6 L140.1,155.6 L139.2,154.9 L138.3,154.2 L137.4,153.7 L136.4,153.4 L135.4,153.2 L134.4,153.2 L133.4,153.2 L132.5,153.4 L131.7,153.8 L130.9,154.2 L130.3,154.7 L129.7,155.2 L129.2,155.9 L128.8,156.5 L128.5,157.2 L128.4,157.9 L128.3,158.6 L128.3,159.3 L128.4,159.9 L128.6,160.5 L128.8,161.0 L129.1,161.5 L129.5,162.0 L129.9,162.3 L130.3,162.7 L130.8,162.9 L131.2,163.1 L132.0,161.2 L131.8,161.1 L131.6,160.9 L131.4,160.8 L131.3,160.5 L131.2,160.3 L131.1,160.1 L131.1,159.8 L131.1,159.5 L131.1,159.3 L131.2,159.0 L131.4,158.8 L131.5,158.5 L131.7,158.3 L131.9,158.1 L132.2,158.0 L132.5,157.8 L132.8,157.8 L133.1,157.7 L133.4,157.7 L133.7,157.7 L134.0,157.8 L134.4,158.0 L134.7,158.1 L134.9,158.4 L135.2,158.6 L135.4,158.9 L135.6,159.3 L135.7,159.6 L135.8,160.0 L135.9,160.4 L135.9,160.8 L135.8,161.3 L135.6,161.7 L135.5,162.1 L135.2,162.5 L134.9,162.9 L134.5,163.2 L134.1,163.5 L133.7,163.7 L133.1,163.9 L132.6,164.0 L132.0,164.1 L131.4,164.0 L130.8,163.9 L130.2,163.7 L129.3,163.3 L128.9,163.1 L128.6,162.9 L128.3,162.6 L128.0,162.3 L127.7,162.0 L127.4,161.7 L127.0,161.3 L126.7,160.8 L126.3,160.4 L125.9,159.8 L125.5,159.3 L125.1,158.7 L124.7,158.1 L124.3,157.4 L123.9,156.7 L123.5,155.9 L123.1,155.1 L122.6,154.2 L122.2,153.3 L121.8,152.4 L121.4,151.4 L121.0,150.4 L120.7,149.3 L120.3,148.2 L119.9,147.0 L119.5,145.8 L119.2,144.6 L118.8,143.3 L118.5,142.0 L118.2,140.6 L117.9,139.2 L117.6,137.7 L117.3,136.2 L117.1,134.7 L116.8,133.1 L116.6,131.4 L116.4,129.8 L116.2,128.0 L116.0,126.3 L115.9,124.4Z" fill="#23262B" stroke="#23262B" stroke-width="1" stroke-linejoin="round"/>
<path d="M102.5,126.5 L103.6,128.5 L104.8,130.5 L106.0,132.4 L107.2,134.3 L108.4,136.1 L109.7,137.8 L110.9,139.5 L112.2,141.1 L113.5,142.6 L114.9,144.1 L116.2,145.5 L117.6,146.9 L118.9,148.1 L120.3,149.4 L121.7,150.5 L123.1,151.6 L124.6,152.6 L126.0,153.5 L127.5,154.4 L128.9,155.2 L130.4,155.9 L131.8,156.6 L133.3,157.2 L134.8,157.7 L136.3,158.1 L137.8,158.4 L139.3,158.7 L140.7,158.9 L142.2,159.0 L143.7,159.0 L145.1,158.9 L146.6,158.7 L148.0,158.5 L149.4,158.1 L150.7,157.7 L152.0,157.1 L153.3,156.5 L154.5,155.8 L155.7,155.1 L156.7,154.3 L158.2,153.2 L159.7,151.8 L161.1,150.2 L162.1,148.5 L162.9,146.6 L163.4,144.8 L163.7,143.0 L163.6,141.2 L163.4,139.4 L162.9,137.8 L162.3,136.2 L161.4,134.9 L160.4,133.7 L159.3,132.6 L158.0,131.8 L156.8,131.1 L155.4,130.7 L154.1,130.4 L152.8,130.4 L151.5,130.5 L150.3,130.8 L149.2,131.2 L148.1,131.7 L147.2,132.4 L146.4,133.2 L145.8,134.0 L145.3,134.9 L144.9,135.9 L144.7,136.8 L144.6,137.7 L144.6,138.6 L144.7,139.5 L145.0,140.3 L145.4,141.1 L145.8,141.7 L146.3,142.3 L146.9,142.8 L147.5,143.2 L148.1,143.5 L148.7,143.7 L149.4,143.8 L150.0,143.9 L150.6,143.8 L151.2,143.7 L151.7,143.5 L152.2,143.3 L151.4,141.4 L151.0,141.6 L150.8,141.6 L150.5,141.6 L150.2,141.6 L149.9,141.5 L149.6,141.3 L149.3,141.1 L149.0,140.9 L148.8,140.7 L148.6,140.4 L148.5,140.1 L148.4,139.7 L148.3,139.4 L148.3,139.0 L148.4,138.6 L148.5,138.2 L148.7,137.9 L148.9,137.5 L149.1,137.2 L149.4,136.9 L149.8,136.7 L150.2,136.5 L150.6,136.3 L151.0,136.2 L151.5,136.2 L152.0,136.2 L152.4,136.3 L152.9,136.5 L153.4,136.7 L153.8,137.0 L154.2,137.4 L154.5,137.8 L154.8,138.3 L155.1,138.8 L155.3,139.4 L155.4,140.0 L155.4,140.6 L155.3,141.2 L155.2,141.9 L154.9,142.5 L154.6,143.1 L154.2,143.7 L153.7,144.3 L153.1,144.8 L152.4,145.2 L151.3,145.7 L150.5,146.1 L149.8,146.3 L149.1,146.5 L148.4,146.6 L147.8,146.7 L147.1,146.7 L146.5,146.7 L145.8,146.6 L145.1,146.5 L144.4,146.3 L143.8,146.2 L143.1,145.9 L142.4,145.6 L141.6,145.3 L140.9,144.9 L140.2,144.5 L139.4,144.0 L138.7,143.5 L137.9,142.9 L137.1,142.3 L136.3,141.6 L135.5,140.9 L134.7,140.1 L133.9,139.2 L133.1,138.3 L132.2,137.3 L131.4,136.3 L130.6,135.2 L129.8,134.0 L129.0,132.8 L128.2,131.6 L127.4,130.2 L126.6,128.9 L125.9,127.4 L125.1,125.9 L124.4,124.4 L123.6,122.8 L122.9,121.1 L122.2,119.4 L121.5,117.5Z" fill="#23262B" stroke="#23262B" stroke-width="1" stroke-linejoin="round"/>
<path d="M109.7,125.0 L111.5,126.1 L113.5,127.3 L115.6,128.3 L117.6,129.3 L119.6,130.2 L121.6,131.0 L123.5,131.7 L125.5,132.4 L127.5,132.9 L129.4,133.4 L131.4,133.9 L133.3,134.2 L135.2,134.4 L137.1,134.6 L139.0,134.7 L140.8,134.8 L142.6,134.8 L144.4,134.6 L146.2,134.5 L147.9,134.2 L149.6,133.9 L151.2,133.5 L152.9,133.1 L154.4,132.6 L156.0,132.0 L157.5,131.3 L158.9,130.6 L160.3,129.9 L161.7,129.0 L163.0,128.1 L164.2,127.2 L165.4,126.2 L166.5,125.2 L167.6,124.1 L168.6,122.9 L169.5,121.8 L170.4,120.5 L171.2,119.3 L171.9,118.0 L172.5,116.7 L173.4,115.0 L174.2,112.8 L174.7,110.6 L174.9,108.5 L174.8,106.4 L174.4,104.4 L173.7,102.5 L172.8,100.7 L171.8,99.2 L170.5,97.8 L169.1,96.7 L167.6,95.8 L166.1,95.1 L164.5,94.7 L162.9,94.5 L161.4,94.5 L159.9,94.7 L158.5,95.1 L157.2,95.6 L156.0,96.4 L155.0,97.2 L154.1,98.2 L153.4,99.2 L152.9,100.3 L152.5,101.4 L152.3,102.5 L152.2,103.6 L152.3,104.7 L152.5,105.7 L152.9,106.7 L153.4,107.5 L153.9,108.3 L154.6,108.9 L155.3,109.5 L156.0,109.9 L156.8,110.2 L157.5,110.4 L158.3,110.5 L159.1,110.5 L159.8,110.4 L160.4,110.2 L161.1,109.9 L161.6,109.6 L162.1,109.1 L162.5,108.7 L162.8,108.3 L161.3,107.0 L161.0,107.3 L160.8,107.5 L160.5,107.7 L160.1,107.8 L159.8,107.8 L159.4,107.8 L159.1,107.8 L158.7,107.7 L158.3,107.6 L158.0,107.4 L157.7,107.1 L157.4,106.8 L157.2,106.5 L157.0,106.1 L156.8,105.7 L156.7,105.3 L156.7,104.9 L156.7,104.4 L156.8,104.0 L157.0,103.5 L157.2,103.1 L157.5,102.7 L157.8,102.3 L158.2,102.0 L158.6,101.7 L159.1,101.5 L159.7,101.3 L160.2,101.2 L160.8,101.2 L161.4,101.3 L162.0,101.4 L162.6,101.7 L163.1,102.0 L163.6,102.4 L164.1,102.9 L164.5,103.4 L164.9,104.0 L165.2,104.7 L165.4,105.4 L165.4,106.2 L165.4,107.0 L165.3,107.8 L165.1,108.6 L164.7,109.4 L164.3,110.2 L163.5,111.3 L162.8,112.1 L162.2,112.8 L161.5,113.4 L160.9,114.0 L160.2,114.6 L159.4,115.1 L158.7,115.6 L157.9,116.0 L157.1,116.4 L156.2,116.8 L155.4,117.1 L154.5,117.4 L153.6,117.7 L152.6,117.9 L151.7,118.0 L150.7,118.2 L149.7,118.3 L148.7,118.3 L147.7,118.3 L146.6,118.3 L145.5,118.2 L144.4,118.1 L143.3,117.9 L142.2,117.7 L141.1,117.4 L139.9,117.1 L138.7,116.8 L137.5,116.4 L136.3,115.9 L135.1,115.4 L133.9,114.8 L132.7,114.2 L131.4,113.5 L130.1,112.8 L128.9,112.0 L127.6,111.1 L126.3,110.2 L125.1,109.2 L123.8,108.2 L122.3,107.0Z" fill="#23262B" stroke="#23262B" stroke-width="1" stroke-linejoin="round"/>
<path d="M115.3,119.0 L117.2,118.9 L119.4,118.9 L121.4,118.7 L123.5,118.5 L125.5,118.2 L127.5,117.9 L129.5,117.5 L131.4,117.0 L133.3,116.4 L135.1,115.9 L136.9,115.2 L138.7,114.5 L140.4,113.8 L142.1,113.0 L143.7,112.1 L145.3,111.2 L146.8,110.3 L148.3,109.3 L149.8,108.2 L151.2,107.2 L152.5,106.0 L153.9,104.9 L155.1,103.7 L156.3,102.5 L157.5,101.2 L158.6,100.0 L159.7,98.7 L160.7,97.3 L161.7,96.0 L162.6,94.6 L163.5,93.2 L164.3,91.7 L165.1,90.3 L165.8,88.8 L166.4,87.3 L167.1,85.8 L167.6,84.3 L168.1,82.8 L168.6,81.2 L169.0,79.8 L169.3,78.4 L169.7,77.4 L170.2,76.5 L170.7,75.7 L171.4,75.0 L172.1,74.5 L172.9,74.0 L173.7,73.6 L174.5,73.4 L175.3,73.3 L176.1,73.3 L176.8,73.4 L177.6,73.6 L178.2,73.8 L178.9,74.2 L179.4,74.6 L179.9,75.1 L180.3,75.6 L180.6,76.2 L180.8,76.8 L181.0,77.4 L181.0,78.0 L181.0,78.6 L180.9,79.1 L180.7,79.7 L180.5,80.2 L180.2,80.6 L179.9,81.0 L179.5,81.4 L179.1,81.6 L178.6,81.8 L178.2,82.0 L177.7,82.1 L177.2,82.1 L176.8,82.1 L176.4,81.9 L175.9,81.8 L175.6,81.6 L175.2,81.3 L175.0,81.0 L174.7,80.7 L174.5,80.3 L174.4,80.0 L174.3,79.6 L174.3,79.2 L174.4,78.8 L172.4,78.4 L172.3,79.0 L172.2,79.6 L172.2,80.3 L172.3,81.0 L172.5,81.7 L172.8,82.4 L173.2,83.0 L173.7,83.6 L174.3,84.2 L174.9,84.7 L175.7,85.1 L176.6,85.4 L177.5,85.6 L178.4,85.7 L179.4,85.7 L180.5,85.5 L181.5,85.1 L182.4,84.6 L183.4,84.0 L184.2,83.2 L185.0,82.2 L185.7,81.2 L186.2,80.0 L186.6,78.7 L186.7,77.4 L186.7,76.0 L186.5,74.5 L186.1,73.1 L185.5,71.7 L184.7,70.3 L183.6,69.0 L182.4,67.9 L181.0,66.9 L179.4,66.1 L177.7,65.5 L175.8,65.1 L173.9,65.0 L171.9,65.2 L169.9,65.6 L167.9,66.4 L166.0,67.4 L164.2,68.7 L162.5,70.3 L161.1,72.2 L159.8,74.3 L159.0,76.2 L158.4,77.5 L157.9,78.6 L157.3,79.7 L156.6,80.7 L156.0,81.8 L155.2,82.8 L154.5,83.8 L153.7,84.7 L152.9,85.7 L152.1,86.6 L151.2,87.4 L150.3,88.3 L149.4,89.1 L148.5,89.9 L147.5,90.6 L146.5,91.3 L145.5,92.0 L144.5,92.7 L143.4,93.3 L142.3,93.8 L141.2,94.4 L140.1,94.9 L138.9,95.4 L137.8,95.8 L136.6,96.2 L135.4,96.5 L134.2,96.8 L133.0,97.1 L131.7,97.3 L130.4,97.5 L129.2,97.7 L127.9,97.8 L126.6,97.8 L125.2,97.9 L123.9,97.8 L122.5,97.8 L121.1,97.7 L119.8,97.5 L118.3,97.3 L116.7,97.0Z" fill="#23262B" stroke="#23262B" stroke-width="1" stroke-linejoin="round"/>
<circle cx="73.4" cy="108.9" r="2.2" fill="#F6F1E7" opacity="0.85"/>
<circle cx="66.0" cy="108.5" r="2.0" fill="#F6F1E7" opacity="0.85"/>
<circle cx="59.0" cy="106.8" r="1.9" fill="#F6F1E7" opacity="0.85"/>
<circle cx="52.3" cy="103.7" r="1.7" fill="#F6F1E7" opacity="0.85"/>
<circle cx="46.1" cy="99.3" r="1.6" fill="#F6F1E7" opacity="0.85"/>
<circle cx="40.5" cy="93.7" r="1.4" fill="#F6F1E7" opacity="0.85"/>
<circle cx="35.5" cy="87.0" r="1.3" fill="#F6F1E7" opacity="0.85"/>
<circle cx="31.3" cy="79.3" r="1.1" fill="#F6F1E7" opacity="0.85"/>
<circle cx="24.0" cy="73.2" r="1.0" fill="#F6F1E7" opacity="0.85"/>
<circle cx="15.8" cy="73.0" r="0.9" fill="#F6F1E7" opacity="0.85"/>
<circle cx="10.2" cy="77.5" r="0.9" fill="#F6F1E7" opacity="0.85"/>
<circle cx="8.9" cy="83.5" r="0.9" fill="#F6F1E7" opacity="0.85"/>
<circle cx="11.3" cy="88.3" r="0.9" fill="#F6F1E7" opacity="0.85"/>
<circle cx="80.6" cy="131.5" r="2.2" fill="#F6F1E7" opacity="0.85"/>
<circle cx="71.7" cy="136.0" r="2.0" fill="#F6F1E7" opacity="0.85"/>
<circle cx="63.1" cy="138.7" r="1.9" fill="#F6F1E7" opacity="0.85"/>
<circle cx="54.7" cy="139.6" r="1.7" fill="#F6F1E7" opacity="0.85"/>
<circle cx="46.8" cy="139.0" r="1.6" fill="#F6F1E7" opacity="0.85"/>
<circle cx="39.6" cy="136.9" r="1.4" fill="#F6F1E7" opacity="0.85"/>
<circle cx="33.1" cy="133.5" r="1.3" fill="#F6F1E7" opacity="0.85"/>
<circle cx="27.1" cy="128.7" r="1.1" fill="#F6F1E7" opacity="0.85"/>
<circle cx="23.3" cy="120.7" r="1.0" fill="#F6F1E7" opacity="0.85"/>
<circle cx="25.1" cy="113.2" r="0.9" fill="#F6F1E7" opacity="0.85"/>
<circle cx="30.4" cy="109.1" r="0.9" fill="#F6F1E7" opacity="0.85"/>
<circle cx="36.2" cy="109.4" r="0.9" fill="#F6F1E7" opacity="0.85"/>
<circle cx="39.9" cy="112.7" r="0.9" fill="#F6F1E7" opacity="0.85"/>
<circle cx="92.8" cy="136.9" r="2.1" fill="#F6F1E7" opacity="0.85"/>
<circle cx="87.4" cy="144.9" r="2.0" fill="#F6F1E7" opacity="0.85"/>
<circle cx="81.5" cy="151.6" r="1.8" fill="#F6F1E7" opacity="0.85"/>
<circle cx="75.1" cy="156.9" r="1.7" fill="#F6F1E7" opacity="0.85"/>
<circle cx="68.5" cy="160.6" r="1.5" fill="#F6F1E7" opacity="0.85"/>
<circle cx="61.6" cy="162.8" r="1.4" fill="#F6F1E7" opacity="0.85"/>
<circle cx="54.8" cy="163.2" r="1.2" fill="#F6F1E7" opacity="0.85"/>
<circle cx="47.9" cy="161.8" r="1.1" fill="#F6F1E7" opacity="0.85"/>
<circle cx="41.4" cy="156.9" r="1.0" fill="#F6F1E7" opacity="0.85"/>
<circle cx="39.7" cy="149.9" r="0.9" fill="#F6F1E7" opacity="0.85"/>
<circle cx="42.4" cy="144.4" r="0.9" fill="#F6F1E7" opacity="0.85"/>
<circle cx="47.3" cy="142.1" r="0.9" fill="#F6F1E7" opacity="0.85"/>
<circle cx="51.8" cy="143.3" r="0.9" fill="#F6F1E7" opacity="0.85"/>
<circle cx="102.9" cy="137.6" r="2.0" fill="#F6F1E7" opacity="0.85"/>
<circle cx="101.2" cy="145.9" r="1.9" fill="#F6F1E7" opacity="0.85"/>
<circle cx="99.2" cy="153.3" r="1.7" fill="#F6F1E7" opacity="0.85"/>
<circle cx="96.9" cy="159.8" r="1.6" fill="#F6F1E7" opacity="0.85"/>
<circle cx="94.2" cy="165.3" r="1.4" fill="#F6F1E7" opacity="0.85"/>
<circle cx="91.3" cy="169.9" r="1.3" fill="#F6F1E7" opacity="0.85"/>
<circle cx="88.1" cy="173.5" r="1.2" fill="#F6F1E7" opacity="0.85"/>
<circle cx="84.2" cy="176.6" r="1.0" fill="#F6F1E7" opacity="0.85"/>
<circle cx="77.2" cy="178.2" r="0.9" fill="#F6F1E7" opacity="0.85"/>
<circle cx="71.5" cy="175.5" r="0.9" fill="#F6F1E7" opacity="0.85"/>
<circle cx="69.3" cy="170.5" r="0.9" fill="#F6F1E7" opacity="0.85"/>
<circle cx="70.5" cy="166.0" r="0.9" fill="#F6F1E7" opacity="0.85"/>
<circle cx="73.8" cy="163.6" r="0.9" fill="#F6F1E7" opacity="0.85"/>
<circle cx="104.2" cy="137.9" r="2.0" fill="#F6F1E7" opacity="0.85"/>
<circle cx="106.9" cy="146.0" r="1.9" fill="#F6F1E7" opacity="0.85"/>
<circle cx="110.0" cy="152.9" r="1.7" fill="#F6F1E7" opacity="0.85"/>
<circle cx="113.3" cy="158.7" r="1.6" fill="#F6F1E7" opacity="0.85"/>
<circle cx="116.9" cy="163.3" r="1.4" fill="#F6F1E7" opacity="0.85"/>
<circle cx="120.6" cy="166.8" r="1.3" fill="#F6F1E7" opacity="0.85"/>
<circle cx="124.4" cy="169.2" r="1.2" fill="#F6F1E7" opacity="0.85"/>
<circle cx="128.8" cy="170.4" r="1.0" fill="#F6F1E7" opacity="0.85"/>
<circle cx="135.9" cy="169.3" r="0.9" fill="#F6F1E7" opacity="0.85"/>
<circle cx="140.1" cy="164.6" r="0.9" fill="#F6F1E7" opacity="0.85"/>
<circle cx="140.3" cy="159.2" r="0.9" fill="#F6F1E7" opacity="0.85"/>
<circle cx="137.5" cy="155.4" r="0.9" fill="#F6F1E7" opacity="0.85"/>
<circle cx="133.5" cy="154.5" r="0.9" fill="#F6F1E7" opacity="0.85"/>
<circle cx="114.1" cy="134.9" r="2.1" fill="#F6F1E7" opacity="0.85"/>
<circle cx="120.0" cy="142.4" r="2.0" fill="#F6F1E7" opacity="0.85"/>
<circle cx="126.1" cy="148.2" r="1.8" fill="#F6F1E7" opacity="0.85"/>
<circle cx="132.4" cy="152.4" r="1.7" fill="#F6F1E7" opacity="0.85"/>
<circle cx="138.8" cy="154.8" r="1.5" fill="#F6F1E7" opacity="0.85"/>
<circle cx="145.1" cy="155.5" r="1.4" fill="#F6F1E7" opacity="0.85"/>
<circle cx="151.0" cy="154.2" r="1.2" fill="#F6F1E7" opacity="0.85"/>
<circle cx="156.6" cy="151.0" r="1.1" fill="#F6F1E7" opacity="0.85"/>
<circle cx="161.1" cy="144.2" r="1.0" fill="#F6F1E7" opacity="0.85"/>
<circle cx="160.3" cy="137.1" r="0.9" fill="#F6F1E7" opacity="0.85"/>
<circle cx="155.9" cy="132.8" r="0.9" fill="#F6F1E7" opacity="0.85"/>
<circle cx="150.6" cy="132.3" r="0.9" fill="#F6F1E7" opacity="0.85"/>
<circle cx="146.8" cy="134.8" r="0.9" fill="#F6F1E7" opacity="0.85"/>
<circle cx="123.9" cy="126.0" r="2.2" fill="#F6F1E7" opacity="0.85"/>
<circle cx="132.7" cy="128.9" r="2.0" fill="#F6F1E7" opacity="0.85"/>
<circle cx="141.2" cy="130.1" r="1.9" fill="#F6F1E7" opacity="0.85"/>
<circle cx="149.1" cy="129.6" r="1.7" fill="#F6F1E7" opacity="0.85"/>
<circle cx="156.1" cy="127.6" r="1.6" fill="#F6F1E7" opacity="0.85"/>
<circle cx="162.2" cy="124.2" r="1.4" fill="#F6F1E7" opacity="0.85"/>
<circle cx="167.1" cy="119.6" r="1.3" fill="#F6F1E7" opacity="0.85"/>
<circle cx="170.9" cy="113.7" r="1.1" fill="#F6F1E7" opacity="0.85"/>
<circle cx="171.9" cy="104.9" r="1.0" fill="#F6F1E7" opacity="0.85"/>
<circle cx="167.7" cy="98.4" r="0.9" fill="#F6F1E7" opacity="0.85"/>
<circle cx="161.4" cy="96.3" r="0.9" fill="#F6F1E7" opacity="0.85"/>
<circle cx="156.0" cy="98.5" r="0.9" fill="#F6F1E7" opacity="0.85"/>
<circle cx="153.6" cy="102.8" r="0.9" fill="#F6F1E7" opacity="0.85"/>
<circle cx="125.9" cy="103.4" r="2.2" fill="#F6F1E7" opacity="0.85"/>
<circle cx="133.1" cy="102.2" r="2.0" fill="#F6F1E7" opacity="0.85"/>
<circle cx="139.8" cy="100.0" r="1.9" fill="#F6F1E7" opacity="0.85"/>
<circle cx="145.9" cy="96.8" r="1.7" fill="#F6F1E7" opacity="0.85"/>
<circle cx="151.3" cy="92.6" r="1.6" fill="#F6F1E7" opacity="0.85"/>
<circle cx="155.8" cy="87.7" r="1.4" fill="#F6F1E7" opacity="0.85"/>
<circle cx="159.5" cy="82.1" r="1.3" fill="#F6F1E7" opacity="0.85"/>
<circle cx="162.5" cy="75.4" r="1.1" fill="#F6F1E7" opacity="0.85"/>
<circle cx="169.0" cy="68.6" r="1.0" fill="#F6F1E7" opacity="0.85"/>
<circle cx="177.2" cy="67.6" r="0.9" fill="#F6F1E7" opacity="0.85"/>
<circle cx="183.2" cy="71.5" r="0.9" fill="#F6F1E7" opacity="0.85"/>
<circle cx="185.2" cy="77.4" r="0.9" fill="#F6F1E7" opacity="0.85"/>
<circle cx="183.2" cy="82.3" r="0.9" fill="#F6F1E7" opacity="0.85"/>
<g transform="rotate(-8 100 84)">
<path d="M100,22 C128,22 140,52 136,82 C134,100 126,116 118,124 C110,131 90,131 82,124 C74,116 66,100 64,82 C60,52 72,22 100,22Z" fill="#23262B"/>
<path d="M84,40 C76,54 74,70 77,84" fill="none" stroke="#F6F1E7" stroke-width="2" stroke-linecap="round" opacity="0.55"/>
<path d="M93,34 C88,44 86,54 87,62" fill="none" stroke="#F6F1E7" stroke-width="1.4" stroke-linecap="round" opacity="0.4"/>
<ellipse cx="82" cy="98" rx="10.5" ry="9" fill="#C8503C"/>
<ellipse cx="82" cy="96" rx="9.5" ry="7.6" fill="#E8A33A"/>
<ellipse cx="82" cy="96.5" rx="4.6" ry="2.6" fill="#23262B"/>
<circle cx="79" cy="93.6" r="1.4" fill="#F6F1E7"/>
<path d="M71,92 C76,84 88,84 93,92" fill="none" stroke="#F6F1E7" stroke-width="1.6" stroke-linecap="round" opacity="0.6"/>
<ellipse cx="118" cy="98" rx="10.5" ry="9" fill="#C8503C"/>
<ellipse cx="118" cy="96" rx="9.5" ry="7.6" fill="#E8A33A"/>
<ellipse cx="118" cy="96.5" rx="4.6" ry="2.6" fill="#23262B"/>
<circle cx="115" cy="93.6" r="1.4" fill="#F6F1E7"/>
<path d="M107,92 C112,84 124,84 129,92" fill="none" stroke="#F6F1E7" stroke-width="1.6" stroke-linecap="round" opacity="0.6"/>
</g></g></svg>